<?xml version="1.0" encoding="UTF-8"?>
<svg version="1.1" xmlns="http://www.w3.org/2000/svg" width="638" height="592">
<path d="M0 0 C18.15 0 36.3 0 55 0 C55 3.96 55 7.92 55 12 C52.36 12 49.72 12 47 12 C47 17.94 47 23.88 47 30 C44.03 30 41.06 30 38 30 C38 32.64 38 35.28 38 38 C35.03 38 32.06 38 29 38 C29 43.94 29 49.88 29 56 C26.36 56 23.72 56 21 56 C21 58.64 21 61.28 21 64 C18.03 64 15.06 64 12 64 C12 66.97 12 69.94 12 73 C9.36 73 6.72 73 4 73 C4 78.61 4 84.22 4 90 C1.03 90 -1.94 90 -5 90 C-5 92.97 -5 95.94 -5 99 C-7.97 99 -10.94 99 -14 99 C-14 104.61 -14 110.22 -14 116 C-16.64 116 -19.28 116 -22 116 C-22 118.97 -22 121.94 -22 125 C-24.97 125 -27.94 125 -31 125 C-31 126.32 -31 127.64 -31 129 C-29.69861588 128.90483849 -29.69861588 128.90483849 -28.37094116 128.80775452 C-15.66517803 127.94144096 -2.95567581 127.58814647 9.7734375 127.24609375 C12.15126006 127.1804346 14.52907776 127.11459973 16.90689087 127.04859924 C21.86724195 126.9115436 26.82764149 126.77645494 31.78808594 126.64282227 C38.09720223 126.4727203 44.40617755 126.29791358 50.71512413 126.12164211 C55.61916189 125.98511627 60.52326357 125.85100852 65.42738724 125.7176075 C67.75146036 125.65412885 70.07551458 125.58995361 72.39954758 125.52502251 C85.60569246 125.15762043 98.78844878 124.93102264 112 125 C112 130.61 112 136.22 112 142 C97.38393631 142.83298406 82.77824777 143.35467547 68.14453125 143.75390625 C65.78537189 143.81962752 63.42621566 143.88546138 61.06706238 143.95140076 C56.14981272 144.08825833 51.23251801 144.22332961 46.31518555 144.35717773 C40.08408607 144.52698955 33.85314334 144.70194612 27.62222767 144.87835789 C22.75656977 145.01541045 17.89082898 145.1493238 13.02506065 145.2823925 C10.73105732 145.34555068 8.43708116 145.40970607 6.14313698 145.47497749 C-9.2418032 145.91081323 -24.60891312 146.08436328 -40 146 C-40 147.65 -40 149.3 -40 151 C-42.64 151 -45.28 151 -48 151 C-48 153.97 -48 156.94 -48 160 C-50.97 160 -53.94 160 -57 160 C-57 165.61 -57 171.22 -57 177 C-59.64 177 -62.28 177 -65 177 C-64.9690625 178.9490625 -64.9690625 178.9490625 -64.9375 180.9375 C-64.91600546 182.29165633 -64.92851801 183.64756083 -65 185 C-66 186 -66 186 -67.84765625 186.09765625 C-69.8984375 186.06510417 -71.94921875 186.03255208 -74 186 C-74 188.64 -74 191.28 -74 194 C-76.97 194 -79.94 194 -83 194 C-83 199.94 -83 205.88 -83 212 C-85.64 212 -88.28 212 -91 212 C-91 214.64 -91 217.28 -91 220 C-93.97 220 -96.94 220 -100 220 C-100 225.94 -100 231.88 -100 238 C-102.97 238 -105.94 238 -109 238 C-109 240.64 -109 243.28 -109 246 C-111.64 246 -114.28 246 -117 246 C-117 248.97 -117 251.94 -117 255 C-119.97 255 -122.94 255 -126 255 C-126 260.61 -126 266.22 -126 272 C-128.97 272 -131.94 272 -135 272 C-135 274.97 -135 277.94 -135 281 C-137.64 281 -140.28 281 -143 281 C-143 286.61 -143 292.22 -143 298 C-145.97 298 -148.94 298 -152 298 C-152 300.97 -152 303.94 -152 307 C-154.64 307 -157.28 307 -160 307 C-160 309.97 -160 312.94 -160 316 C-162.97 316 -165.94 316 -169 316 C-169 321.61 -169 327.22 -169 333 C-171.97 333 -174.94 333 -178 333 C-178 335.64 -178 338.28 -178 341 C-180.64 341 -183.28 341 -186 341 C-186 346.94 -186 352.88 -186 359 C-188.97 359 -191.94 359 -195 359 C-195 361.97 -195 364.94 -195 368 C-197.97 368 -200.94 368 -204 368 C-204 373.61 -204 379.22 -204 385 C-206.64 385 -209.28 385 -212 385 C-212 387.64 -212 390.28 -212 393 C-214.97 393 -217.94 393 -221 393 C-221 395.97 -221 398.94 -221 402 C-223.64 402 -226.28 402 -229 402 C-229 407.61 -229 413.22 -229 419 C-231.97 419 -234.94 419 -238 419 C-238 421.97 -238 424.94 -238 428 C-240.97 428 -243.94 428 -247 428 C-247 430.97 -247 433.94 -247 437 C-249.64 437 -252.28 437 -255 437 C-255 442.61 -255 448.22 -255 454 C-257.97 454 -260.94 454 -264 454 C-264 456.97 -264 459.94 -264 463 C-266.97 463 -269.94 463 -273 463 C-273 468.61 -273 474.22 -273 480 C-275.64 480 -278.28 480 -281 480 C-281 482.97 -281 485.94 -281 489 C-283.97 489 -286.94 489 -290 489 C-290 491.64 -290 494.28 -290 497 C-292.64 497 -295.28 497 -298 497 C-297.98839844 498.21558594 -297.97679687 499.43117188 -297.96484375 500.68359375 C-297.95546722 502.26822764 -297.94636687 503.85286318 -297.9375 505.4375 C-297.92912109 506.23994141 -297.92074219 507.04238281 -297.91210938 507.86914062 C-297.9034857 509.91295221 -297.9477185 511.95683902 -298 514 C-299 515 -299 515 -300.84765625 515.09765625 C-302.8984375 515.06510417 -304.94921875 515.03255208 -307 515 C-307 517.64 -307 520.28 -307 523 C-309.97 523 -312.94 523 -316 523 C-316 528.61 -316 534.22 -316 540 C-318.64 540 -321.28 540 -324 540 C-324 547.26 -324 554.52 -324 562 C-317.07 562 -310.14 562 -303 562 C-303 559.36 -303 556.72 -303 554 C-294.42 554 -285.84 554 -277 554 C-277 551.36 -277 548.72 -277 546 C-276 545 -276 545 -272.18359375 544.90234375 C-270.60153318 544.90901911 -269.01948841 544.92098125 -267.4375 544.9375 C-266.63119141 544.94201172 -265.82488281 544.94652344 -264.99414062 544.95117188 C-262.99606244 544.96299482 -260.99802217 544.98093086 -259 545 C-259 542.03 -259 539.06 -259 536 C-256.36 536 -253.72 536 -251 536 C-251 533.36 -251 530.72 -251 528 C-245.06 528 -239.12 528 -233 528 C-233 525.03 -233 522.06 -233 519 C-230.36 519 -227.72 519 -225 519 C-225 516.36 -225 513.72 -225 511 C-222.03 511 -219.06 511 -216 511 C-216 508.03 -216 505.06 -216 502 C-213.36 502 -210.72 502 -208 502 C-208.0309375 500.0509375 -208.0309375 500.0509375 -208.0625 498.0625 C-208.08399454 496.70834367 -208.07148199 495.35243917 -208 494 C-207 493 -207 493 -205.15234375 492.90234375 C-203.1015625 492.93489583 -201.05078125 492.96744792 -199 493 C-199 490.36 -199 487.72 -199 485 C-196.03 485 -193.06 485 -190 485 C-190 482.03 -190 479.06 -190 476 C-187.36 476 -184.72 476 -182 476 C-182 473.03 -182 470.06 -182 467 C-179.36 467 -176.72 467 -174 467 C-174 464.36 -174 461.72 -174 459 C-171.03 459 -168.06 459 -165 459 C-165 456.03 -165 453.06 -165 450 C-162.03 450 -159.06 450 -156 450 C-156 447.03 -156 444.06 -156 441 C-153.36 441 -150.72 441 -148 441 C-148 435.39 -148 429.78 -148 424 C-143.71 424 -139.42 424 -135 424 C-135 431.26 -135 438.52 -135 446 C-137.97 446 -140.94 446 -144 446 C-144 448.64 -144 451.28 -144 454 C-146.64 454 -149.28 454 -152 454 C-152 459.61 -152 465.22 -152 471 C-154.97 471 -157.94 471 -161 471 C-161 473.97 -161 476.94 -161 480 C-163.64 480 -166.28 480 -169 480 C-168.9690625 481.9490625 -168.9690625 481.9490625 -168.9375 483.9375 C-168.91600546 485.29165633 -168.92851801 486.64756083 -169 488 C-170 489 -170 489 -171.84765625 489.09765625 C-173.8984375 489.06510417 -175.94921875 489.03255208 -178 489 C-178 491.64 -178 494.28 -178 497 C-180.97 497 -183.94 497 -187 497 C-187 499.97 -187 502.94 -187 506 C-189.64 506 -192.28 506 -195 506 C-195 508.97 -195 511.94 -195 515 C-197.97 515 -200.94 515 -204 515 C-204 517.64 -204 520.28 -204 523 C-206.97 523 -209.94 523 -213 523 C-213 525.97 -213 528.94 -213 532 C-218.61 532 -224.22 532 -230 532 C-230 534.64 -230 537.28 -230 540 C-232.97 540 -235.94 540 -239 540 C-239 542.97 -239 545.94 -239 549 C-241.64 549 -244.28 549 -247 549 C-247 551.97 -247 554.94 -247 558 C-252.61 558 -258.22 558 -264 558 C-264 560.64 -264 563.28 -264 566 C-269.94 566 -275.88 566 -282 566 C-282 568.97 -282 571.94 -282 575 C-290.58 575 -299.16 575 -308 575 C-308 577.97 -308 580.94 -308 584 C-317.9 584 -327.8 584 -338 584 C-338 581.03 -338 578.06 -338 575 C-343.61 575 -349.22 575 -355 575 C-355 572.03 -355 569.06 -355 566 C-357.97 566 -360.94 566 -364 566 C-364 556.1 -364 546.2 -364 536 C-361.03 536 -358.06 536 -355 536 C-355 531.71 -355 527.42 -355 523 C-356.32 523 -357.64 523 -359 523 C-358.979375 524.299375 -358.95875 525.59875 -358.9375 526.9375 C-358.91600546 528.29165633 -358.92851801 529.64756083 -359 531 C-360 532 -360 532 -363.81640625 532.09765625 C-365.39846682 532.09098089 -366.98051159 532.07901875 -368.5625 532.0625 C-369.36880859 532.05798828 -370.17511719 532.05347656 -371.00585938 532.04882812 C-373.00393756 532.03700518 -375.00197783 532.01906914 -377 532 C-377 534.64 -377 537.28 -377 540 C-379.64 540 -382.28 540 -385 540 C-385 542.97 -385 545.94 -385 549 C-387.97 549 -390.94 549 -394 549 C-394 551.64 -394 554.28 -394 557 C-399.61 557 -405.22 557 -411 557 C-411 559.97 -411 562.94 -411 566 C-416.61 566 -422.22 566 -428 566 C-428 568.64 -428 571.28 -428 574 C-429 575 -429 575 -432.81640625 575.09765625 C-434.39846682 575.09098089 -435.98051159 575.07901875 -437.5625 575.0625 C-438.36880859 575.05798828 -439.17511719 575.05347656 -440.00585938 575.04882812 C-442.00393756 575.03700518 -444.00197783 575.01906914 -446 575 C-446 577.64 -446 580.28 -446 583 C-452.93 583 -459.86 583 -467 583 C-467 580.36 -467 577.72 -467 575 C-475.58 575 -484.16 575 -493 575 C-493 572.03 -493 569.06 -493 566 C-495.97 566 -498.94 566 -502 566 C-502 560.39 -502 554.78 -502 549 C-504.64 549 -507.28 549 -510 549 C-510 530.52 -510 512.04 -510 493 C-507.36 493 -504.72 493 -502 493 C-502 487.39 -502 481.78 -502 476 C-499.03 476 -496.06 476 -493 476 C-493 470.06 -493 464.12 -493 458 C-490.03 458 -487.06 458 -484 458 C-484 452.39 -484 446.78 -484 441 C-481.36 441 -478.72 441 -476 441 C-476 438.03 -476 435.06 -476 432 C-473.03 432 -470.06 432 -467 432 C-467 429.36 -467 426.72 -467 424 C-464.03 424 -461.06 424 -458 424 C-458 418.06 -458 412.12 -458 406 C-455.36 406 -452.72 406 -450 406 C-450 403.36 -450 400.72 -450 398 C-447.03 398 -444.06 398 -441 398 C-441 395.03 -441 392.06 -441 389 C-438.36 389 -435.72 389 -433 389 C-433 386.36 -433 383.72 -433 381 C-427.06 381 -421.12 381 -415 381 C-415 378.03 -415 375.06 -415 372 C-412.36 372 -409.72 372 -407 372 C-407 369.03 -407 366.06 -407 363 C-404.03 363 -401.06 363 -398 363 C-398 360.36 -398 357.72 -398 355 C-392.39 355 -386.78 355 -381 355 C-381 352.36 -381 349.72 -381 347 C-380 346 -380 346 -376.18359375 345.90234375 C-374.60153318 345.90901911 -373.01948841 345.92098125 -371.4375 345.9375 C-370.63119141 345.94201172 -369.82488281 345.94652344 -368.99414062 345.95117188 C-366.99606244 345.96299482 -364.99802217 345.98093086 -363 346 C-363 343.03 -363 340.06 -363 337 C-357.39 337 -351.78 337 -346 337 C-346 334.36 -346 331.72 -346 329 C-334.45 329 -322.9 329 -311 329 C-311 326.03 -311 323.06 -311 320 C-298.46 320 -285.92 320 -273 320 C-273 322.97 -273 325.94 -273 329 C-267.06 329 -261.12 329 -255 329 C-255 331.64 -255 334.28 -255 337 C-252.36 337 -249.72 337 -247 337 C-247 339.97 -247 342.94 -247 346 C-242.38 346 -237.76 346 -233 346 C-233 343.03 -233 340.06 -233 337 C-230.36 337 -227.72 337 -225 337 C-225 331.39 -225 325.78 -225 320 C-222.03 320 -219.06 320 -216 320 C-216 317.03 -216 314.06 -216 311 C-213.36 311 -210.72 311 -208 311 C-208.01740234 309.28490234 -208.01740234 309.28490234 -208.03515625 307.53515625 C-208.04453288 306.04427246 -208.05363321 304.55338691 -208.0625 303.0625 C-208.07087891 302.30775391 -208.07925781 301.55300781 -208.08789062 300.77539062 C-208.09652441 298.85005687 -208.05224333 296.92464419 -208 295 C-207 294 -207 294 -205.15234375 293.90234375 C-203.1015625 293.93489583 -201.05078125 293.96744792 -199 294 C-199 291.03 -199 288.06 -199 285 C-196.03 285 -193.06 285 -190 285 C-190 279.39 -190 273.78 -190 268 C-187.36 268 -184.72 268 -182 268 C-182 265.03 -182 262.06 -182 259 C-179.03 259 -176.06 259 -173 259 C-173 253.39 -173 247.78 -173 242 C-170.03 242 -167.06 242 -164 242 C-164 239.03 -164 236.06 -164 233 C-161.36 233 -158.72 233 -156 233 C-156 230.36 -156 227.72 -156 225 C-153.03 225 -150.06 225 -147 225 C-147 219.06 -147 213.12 -147 207 C-144.03 207 -141.06 207 -138 207 C-138 204.36 -138 201.72 -138 199 C-135.36 199 -132.72 199 -130 199 C-130 193.39 -130 187.78 -130 182 C-127.03 182 -124.06 182 -121 182 C-121 179.03 -121 176.06 -121 173 C-118.03 173 -115.06 173 -112 173 C-112 170.03 -112 167.06 -112 164 C-109.36 164 -106.72 164 -104 164 C-104 158.72 -104 153.44 -104 148 C-105.08667969 148.06058594 -106.17335938 148.12117187 -107.29296875 148.18359375 C-119.44040351 148.82613048 -131.59094914 149.22702405 -143.75 149.5625 C-144.52515961 149.58464569 -145.30031921 149.60679138 -146.09896851 149.62960815 C-157.07039261 149.94025542 -168.02392729 150.04078159 -179 150 C-179.33 144.39 -179.66 138.78 -180 133 C-161.45122151 131.94306242 -142.89376347 131.48346816 -124.32312012 131.00421143 C-119.99140941 130.89190629 -115.65977097 130.77687974 -111.328125 130.66210938 C-102.88548357 130.43880265 -94.44276917 130.21842388 -86 130 C-86 127.03 -86 124.06 -86 121 C-83.36 121 -80.72 121 -78 121 C-78 118.03 -78 115.06 -78 112 C-75.03 112 -72.06 112 -69 112 C-69 106.39 -69 100.78 -69 95 C-66.03 95 -63.06 95 -60 95 C-60 92.03 -60 89.06 -60 86 C-57.36 86 -54.72 86 -52 86 C-52 80.39 -52 74.78 -52 69 C-49.03 69 -46.06 69 -43 69 C-43 66.03 -43 63.06 -43 60 C-40.03 60 -37.06 60 -34 60 C-34 57.36 -34 54.72 -34 52 C-31.36 52 -28.72 52 -26 52 C-26 46.06 -26 40.12 -26 34 C-23.03 34 -20.06 34 -17 34 C-17 31.36 -17 28.72 -17 26 C-14.36 26 -11.72 26 -9 26 C-9 20.06 -9 14.12 -9 8 C-6.03 8 -3.06 8 0 8 C0 5.36 0 2.72 0 0 Z M-299 341 C-299 343.97 -299 346.94 -299 350 C-304.61 350 -310.22 350 -316 350 C-316 352.97 -316 355.94 -316 359 C-321.61 359 -327.22 359 -333 359 C-333.33 361.64 -333.66 364.28 -334 367 C-336.64 367.33 -339.28 367.66 -342 368 C-342 370.64 -342 373.28 -342 376 C-344.97 376 -347.94 376 -351 376 C-351 378.97 -351 381.94 -351 385 C-353.64 385 -356.28 385 -359 385 C-359 387.64 -359 390.28 -359 393 C-364.94 393 -370.88 393 -377 393 C-377 395.97 -377 398.94 -377 402 C-379.64 402 -382.28 402 -385 402 C-385 404.97 -385 407.94 -385 411 C-387.97 411 -390.94 411 -394 411 C-394 413.64 -394 416.28 -394 419 C-396.64 419 -399.28 419 -402 419 C-402.33 424.61 -402.66 430.22 -403 436 C-405.64 436.33 -408.28 436.66 -411 437 C-411 439.64 -411 442.28 -411 445 C-413.97 445 -416.94 445 -420 445 C-420 447.97 -420 450.94 -420 454 C-422.64 454 -425.28 454 -428 454 C-428.33 456.64 -428.66 459.28 -429 462 C-431.64 462.33 -434.28 462.66 -437 463 C-437 468.28 -437 473.56 -437 479 C-439.97 479 -442.94 479 -446 479 C-446 481.97 -446 484.94 -446 488 C-448.64 488 -451.28 488 -454 488 C-454 493.61 -454 499.22 -454 505 C-456.97 505 -459.94 505 -463 505 C-463 513.58 -463 522.16 -463 531 C-465.97 531 -468.94 531 -472 531 C-472 538.26 -472 545.52 -472 553 C-469.03 553 -466.06 553 -463 553 C-463 555.97 -463 558.94 -463 562 C-455.74 562 -448.48 562 -441 562 C-441 559.03 -441 556.06 -441 553 C-435.39 553 -429.78 553 -424 553 C-424 550.36 -424 547.72 -424 545 C-418.39 545 -412.78 545 -407 545 C-407 542.03 -407 539.06 -407 536 C-404.03 536 -401.06 536 -398 536 C-398 533.03 -398 530.06 -398 527 C-395.03 527 -392.06 527 -389 527 C-389 524.36 -389 521.72 -389 519 C-383.39 519 -377.78 519 -372 519 C-372 516.03 -372 513.06 -372 510 C-369.03 510 -366.06 510 -363 510 C-363 507.36 -363 504.72 -363 502 C-360.36 502 -357.72 502 -355 502 C-355 499.03 -355 496.06 -355 493 C-352.03 493 -349.06 493 -346 493 C-346 490.03 -346 487.06 -346 484 C-343.03 484 -340.06 484 -337 484 C-337 481.36 -337 478.72 -337 476 C-334.36 476 -331.72 476 -329 476 C-328.67 473.36 -328.34 470.72 -328 468 C-325.36 467.67 -322.72 467.34 -320 467 C-320 464.03 -320 461.06 -320 458 C-317.03 458 -314.06 458 -311 458 C-311 452.39 -311 446.78 -311 441 C-308.36 441 -305.72 441 -303 441 C-303 438.36 -303 435.72 -303 433 C-300.03 433 -297.06 433 -294 433 C-294 430.03 -294 427.06 -294 424 C-291.03 424 -288.06 424 -285 424 C-285 418.39 -285 412.78 -285 407 C-282.36 407 -279.72 407 -277 407 C-277 404.03 -277 401.06 -277 398 C-274.03 398 -271.06 398 -268 398 C-268 392.39 -268 386.78 -268 381 C-265.36 381 -262.72 381 -260 381 C-260 370.77 -260 360.54 -260 350 C-262.64 350 -265.28 350 -268 350 C-268 347.03 -268 344.06 -268 341 C-278.23 341 -288.46 341 -299 341 Z " fill="#000000" transform="translate(518,1)"/>
</svg>
